<?xml version="1.0" encoding="UTF-8" standalone="no"?>
<svg
   version="1.1"
   width="1000"
   height="1000"
   viewBox="0 0 1000 1000"
   xml:space="preserve"
   id="svg51"
   xmlns="http://www.w3.org/2000/svg"
   xmlns:svg="http://www.w3.org/2000/svg">
  <defs
   id="defs25">
    <linearGradient
   id="SVGID_263075"
   gradientUnits="userSpaceOnUse"
   gradientTransform="matrix(1 0 0 1 8212.57 1154.12)"
   x1="0"
   y1="0"
   x2="0"
   y2="641">
      <stop
   offset="0%"
   style="stop-color:rgb(91,36,122);stop-opacity:1"
   id="stop2" />
      <stop
   offset="100%"
   style="stop-color:rgb(27,206,223);stop-opacity:1"
   id="stop4" />
    </linearGradient>
    <linearGradient
   id="SVGID_263076"
   gradientUnits="userSpaceOnUse"
   gradientTransform="matrix(1 0 0 1 8106.82 821.668)"
   x1="0"
   y1="0"
   x2="0"
   y2="932">
      <stop
   offset="0%"
   style="stop-color:rgb(91,36,122);stop-opacity:1"
   id="stop7" />
      <stop
   offset="100%"
   style="stop-color:rgb(27,206,223);stop-opacity:1"
   id="stop9" />
    </linearGradient>
    <linearGradient
   id="SVGID_13_263077"
   gradientUnits="userSpaceOnUse"
   gradientTransform="matrix(1 0 0 1 0.06 0.0115373275)"
   x1="0"
   y1="0"
   x2="0"
   y2="36">
      <stop
   offset="0%"
   style="stop-color:rgb(91,36,122);stop-opacity:1"
   id="stop12" />
      <stop
   offset="100%"
   style="stop-color:rgb(27,206,223);stop-opacity:1"
   id="stop14" />
    </linearGradient>
    <linearGradient
   id="ring-gradient"
   x1="0"
   y1="0"
   x2="0"
   y2="1000"
   gradientUnits="userSpaceOnUse">
      <stop
   offset="0%"
   stop-color="#5b247a"
   id="stop17" />
      <stop
   offset="100%"
   stop-color="#1bcedf"
   id="stop19" />
    </linearGradient>
    <clipPath
   id="badge-clip">
      <circle
   cx="500"
   cy="500"
   r="448"
   id="circle22" />
    </clipPath>
  </defs>

  <rect
   x="0"
   y="0"
   width="1000"
   height="1000"
   fill="#ffffff"
   id="rect27" />
  <g
   clip-path="url(#badge-clip)"
   id="g49">
    <path
   id="circle29"
   style="fill:#ffffff"
   d="M 948,500 A 448,448 0 0 1 500,948 448,448 0 0 1 52,500 448,448 0 0 1 500,52 448,448 0 0 1 948,500 Z" />
    <path
   id="circle31"
   style="opacity:0.45;fill:none;stroke:url(#ring-gradient);stroke-width:5"
   d="M 930,500 A 430,430 0 0 1 500,930 430,430 0 0 1 70,500 430,430 0 0 1 500,70 430,430 0 0 1 930,500 Z" />

    <g
   transform="matrix(1.62,0,0,1.62,500,390)"
   id="g41">
      <g
   transform="matrix(0.26933372,0,0,-0.26933372,-0.06194675,-44.770266)"
   id="g35">
        <path
   style="opacity:1;fill:url(#SVGID_263075);fill-rule:nonzero"
   transform="translate(-8533.105,-1474.56)"
   d="m 8212.57,1282.16 22.02,-22.02 c 70.69,-70.69 163.55,-106.02 256.41,-106.02 92.87,0 185.73,35.33 256.42,106.02 68.5,68.5 106.22,159.57 106.22,256.44 0,96.87 -37.72,187.93 -106.22,256.42 l -22.01,22 -22.01,-22 c -16.04,-16.04 -30.24,-33.43 -42.81,-51.73 -23.32,25.6 -54.27,45.99 -81.54,51.02 l -13.94,2.58 -11.09,-8.82 c -26.06,-20.73 -46.31,-52.12 -57.05,-85.99 -49.58,19.02 -105.96,27.33 -162.92,20.84 l -24.55,-2.83 -2.82,-24.55 c -6.55,-56.97 1.74,-113.36 20.76,-162.93 -33.84,-10.74 -65.2,-30.98 -85.9,-57.02 l -8.82,-11.09 2.57,-13.94 c 5.03,-27.27 25.42,-58.23 51.03,-81.55 -18.31,-12.58 -35.69,-26.77 -51.73,-42.81 z m 90.57,0.02 c 53.13,42.74 118.71,65.96 187.86,65.96 69.16,0 134.75,-23.22 187.86,-65.96 -109.33,-87.78 -266.35,-87.8 -375.72,0 z m 422.27,422.27 c 42.75,-53.11 65.97,-118.71 65.97,-187.87 0,-69.16 -23.22,-134.76 -65.97,-187.88 -42.75,53.12 -65.96,118.72 -65.96,187.88 0,69.16 23.22,134.74 65.96,187.87 z m -144.44,1.5 c 15.87,-8.44 35.9,-25.66 46.76,-43.93 -7.91,-18.04 -14.17,-36.73 -19.02,-55.9 -15.64,17.14 -34.33,32.43 -55.18,45.63 4.86,21.62 15.54,40.68 27.44,54.2 z m 17.01,-211.5 0.21,0.03 c 2.24,-37.4 9.79,-73.79 22.94,-108.02 -34.25,13.13 -70.64,20.69 -108.04,22.93 l 0.04,0.21 c -75.65,10.73 -149.67,109.62 -146.41,231.24 122.03,3.48 220.52,-70.77 231.26,-146.39 z m -296.35,-67.83 c 13.51,11.89 32.55,22.56 54.14,27.43 13.21,-20.85 28.51,-39.55 45.66,-55.19 -19.16,-4.85 -37.84,-11.11 -55.87,-19.01 -18.26,10.85 -35.5,30.9 -43.93,46.77"
   id="path33" />
      </g>
      <g
   transform="matrix(0.26933372,0,0,-0.26933372,0,5.5563546)"
   id="g39">
        <path
   style="opacity:1;fill:url(#SVGID_263076);fill-rule:nonzero"
   transform="translate(-8533.335,-1287.704)"
   d="m 8843.01,1720.1 c 35.77,-61.67 54.58,-131.38 54.58,-203.52 0,-224.19 -182.39,-406.57 -406.59,-406.57 -132.22,0 -255.93,65.04 -331.71,171.8 l -52.47,-33.63 c 79.09,-112.85 204.47,-185.64 341.58,-198.26 V 906.855 h -129.45 v -85.187 h 344.11 v 85.187 h -129.45 v 142.895 c 238.62,21.61 426.24,222.68 426.24,466.83 0,84.14 -22.18,165.44 -64.37,237.16 l -52.47,-33.64"
   id="path37" />
      </g>
    </g>

    <g
   aria-label="       OPEN IDEAS    "
   id="text43"
   style="font-size:86px;font-family:'Times New Roman', 'DejaVu Serif', serif;letter-spacing:2;text-anchor:middle;fill:#223a96"><path
     d="m 246.88379,659.78125 q 0,-28.72266 27.50488,-28.72266 13.60547,0 20.57617,7.30664 6.97071,7.26465 6.97071,21.41602 0,14.36133 -7.05469,21.70996 -7.05469,7.34863 -20.49219,7.34863 -13.39551,0 -20.45019,-7.30664 -7.05469,-7.34863 -7.05469,-21.75195 z m 8.77637,0 q 0,13.56348 4.53515,19.65234 4.53516,6.08887 14.19336,6.08887 9.61621,0 14.19336,-6.08887 4.57715,-6.08886 4.57715,-19.65234 0,-13.47949 -4.57715,-19.40039 -4.53516,-5.96289 -14.19336,-5.96289 -9.70019,0 -14.23535,5.96289 -4.49316,5.9209 -4.49316,19.40039 z"
     id="path57" /><path
     d="m 325.26758,665.91211 v 18.72851 l 8.94433,1.13379 V 688 h -23.72558 v -2.22559 l 6.67676,-1.13379 v -49.63476 l -7.22266,-1.0918 v -2.22558 h 21.24805 q 20.66015,0 20.66015,16.58691 0,8.65039 -5.24902,13.14356 -5.20703,4.49316 -14.99121,4.49316 z m 18.22461,-17.55274 q 0,-6.92871 -3.2334,-9.91015 -3.2334,-2.98145 -10.87598,-2.98145 h -4.11523 v 26.66504 h 4.36719 q 7.09668,0 10.45605,-3.2334 3.40137,-3.23339 3.40137,-10.54004 z"
     id="path59" /><path
     d="m 359.76953,685.77441 7.22266,-1.13379 v -49.63476 l -7.22266,-1.0918 v -2.22558 h 42.24414 v 13.47949 h -2.77148 l -1.34375,-9.11231 q -4.70313,-0.58789 -13.60547,-0.58789 h -9.19629 v 22.00391 h 15.20117 l 1.30176,-6.71875 h 2.6875 v 17.30078 h -2.6875 l -1.30176,-6.80273 h -15.20117 v 22.96972 h 11.08594 q 10.83398,0 14.19336,-0.67187 l 2.39355,-10.41406 h 2.77149 L 404.74316,688 h -44.97363 z"
     id="path61" /><path
     d="m 460.3252,635.00586 -7.5586,-1.0918 v -2.22558 h 19.19043 v 2.22558 l -7.22266,1.0918 V 688 h -4.07324 l -34.72754,-50.64258 v 47.2832 l 7.5586,1.13379 V 688 h -19.19043 v -2.22559 l 7.22265,-1.13379 v -49.63476 l -7.22265,-1.0918 v -2.22558 h 17.04883 l 28.97461,41.69824 z"
     id="path63" /><path
     d="m 517.82324,684.64062 7.22266,1.13379 V 688 h -22.50781 v -2.22559 l 7.22265,-1.13379 v -49.63476 l -7.22265,-1.0918 v -2.22558 h 22.50781 v 2.22558 l -7.22266,1.0918 z"
     id="path65" /><path
     d="m 558.12012,631.68848 q 15.5791,0 23.0957,6.9707 7.5166,6.92871 7.5166,20.87012 0,14.10937 -7.26465,21.37402 -7.22265,7.26465 -21.62597,7.26465 L 532.54687,688 v -2.22559 l 7.22266,-1.13379 v -49.63476 l -7.22266,-1.0918 v -2.22558 z m 21.83593,27.75683 q 0,-11.7998 -6.38281,-17.88867 -6.34082,-6.08887 -18.14062,-6.08887 h -7.5586 v 48.58496 q 5.03907,0.33594 11.96778,0.33594 10.33007,0 15.20117,-6.08887 4.91308,-6.08886 4.91308,-18.85449 z"
     id="path67" /><path
     d="m 596.65332,685.77441 7.22266,-1.13379 v -49.63476 l -7.22266,-1.0918 v -2.22558 h 42.24414 v 13.47949 h -2.77148 l -1.34375,-9.11231 q -4.70313,-0.58789 -13.60547,-0.58789 h -9.19629 v 22.00391 h 15.20117 l 1.30176,-6.71875 h 2.6875 v 17.30078 h -2.6875 l -1.30176,-6.80273 h -15.20117 v 22.96972 h 11.08594 q 10.83398,0 14.19336,-0.67187 l 2.39355,-10.41406 h 2.77148 L 641.62695,688 h -44.97363 z"
     id="path69" /><path
     d="M 668.06641,685.77441 V 688 h -18.51856 v -2.22559 l 6.38281,-1.13379 19.19043,-53.41406 h 7.97852 l 19.94629,53.41406 7.13867,1.13379 V 688 H 686.375 v -2.22559 l 7.55859,-1.13379 -5.58496,-16.25097 h -22.17187 l -5.66895,16.25097 z m 9.02832,-48.50097 -9.65821,27.33691 h 19.61035 z"
     id="path71" /><path
     d="m 718.65137,672.84082 h 2.72949 l 1.46973,7.60059 q 1.55371,1.97363 5.333,3.48535 3.82129,1.51172 7.51661,1.51172 5.8789,0 9.15429,-2.98145 3.31738,-3.02344 3.31738,-8.31445 0,-3.02344 -1.30175,-4.99707 -1.25977,-1.97364 -3.35938,-3.31739 -2.05762,-1.38574 -4.70312,-2.30957 -2.64551,-0.96582 -5.45899,-1.93164 -2.77148,-0.96582 -5.41699,-2.1416 -2.64551,-1.17578 -4.74512,-2.98144 -2.05761,-1.80567 -3.35937,-4.45117 -1.25977,-2.6875 -1.25977,-6.59278 0,-6.71875 5.03907,-10.54004 5.03906,-3.82129 13.98339,-3.82129 6.80274,0 14.78125,1.80567 v 11.71582 h -2.72949 l -1.46973,-6.88672 q -4.2832,-3.10742 -10.58203,-3.10742 -5.62695,0 -8.81836,2.30957 -3.14941,2.26758 -3.14941,6.29883 0,2.72949 1.25977,4.53515 1.30175,1.80567 3.35937,3.10742 2.09961,1.25977 4.74512,2.1836 2.6875,0.92383 5.45898,1.93164 2.81348,0.96582 5.45899,2.22558 2.6875,1.21778 4.74511,3.14942 2.09961,1.88965 3.35938,4.66113 1.30176,2.72949 1.30176,6.76074 0,8.14649 -4.99707,12.63965 -4.99707,4.45117 -14.40332,4.45117 -4.53516,0 -9.11231,-0.79785 -4.57715,-0.79785 -8.14648,-2.18359 z"
     id="path73" /></g>

    <g
   transform="matrix(1.7,0,0,1.7,493,744)"
   id="g47">
      <path
   style="opacity:1;fill:url(#SVGID_13_263077);fill-rule:nonzero"
   transform="translate(-100,-18.257464)"
   d="M 199.94,21.26 C 153.82,-3.35 102.66,25.1 102.66,25.1 22.52,60.87 0.06,1.06 0.06,1.06 c 6.22,12 33,43.88 92.29,11.41 59.29,-32.47 107.59,8.79 107.59,8.79 z M 87.2,9 c 0,0 -53.39,17.48 -76.31,-4.3 0,0 23,34.07 76.31,4.34 M 118.5,28 c 0,0 47.82,-15.51 76.43,-2.33 0,0 -31.62,-23.23 -76.43,2.33"
   id="path45" />
    </g>
  </g>
</svg>
